<?xml version="1.0" encoding="iso-8859-1"?>
<!-- Generator: Adobe Illustrator 19.0.0, SVG Export Plug-In . SVG Version: 6.00 Build 0)  -->
<svg version="1.1" id="Layer_1" xmlns="http://www.w3.org/2000/svg" xmlns:xlink="http://www.w3.org/1999/xlink" x="0px" y="0px"
	 viewBox="0 0 330 330" style="enable-background:new 0 0 330 330;" xml:space="preserve">
<g id="XMLID_1557_">
	<path id="XMLID_1558_" style="fill:#FF5023;" d="M200,120V46c0,0-69.667,0.016-70,0.025V120l-39,60v116c0,18.777,15.223,34,34,34
		h80c18.777,0,34-15.223,34-34V179L200,120z"/>
	<path id="XMLID_1559_" style="fill:#BD3C1A;" d="M165,46.008c-21.789,0.005-34.816,0.012-35,0.018V120l-39,60v116
		c0,18.777,15.223,34,34,34h40V46.008z"/>
	<path id="XMLID_1560_" style="fill:#FFFFFF;" d="M215,215c0,0.416-20,75-20,75h-60l-20-75c0,0,12.5-25,50-25S215,214.584,215,215z"
		/>
	<path id="XMLID_1561_" style="fill:#FFE98F;" d="M165,190c-37.5,0-50,25-50,25l20,75h30C165,290,165,202.668,165,190z"/>
	<rect id="XMLID_1562_" x="130" style="fill:#DEDDE0;" width="70" height="50"/>
	<rect id="XMLID_1563_" x="130" style="fill:#CDCDD0;" width="35" height="50"/>
	<rect id="XMLID_1564_" x="130" y="15" style="fill:#ACABB1;" width="70" height="20"/>
	<g id="XMLID_1565_">
		<circle id="XMLID_1566_" style="fill:#FFFFFF;" cx="165" cy="84.834" r="20"/>
		<path id="XMLID_1567_" style="fill:#FFE98F;" d="M165,104.834c-11.046,0-20-8.955-20-20c0-11.047,8.954-20,20-20"/>
	</g>
</g>
<g>
</g>
<g>
</g>
<g>
</g>
<g>
</g>
<g>
</g>
<g>
</g>
<g>
</g>
<g>
</g>
<g>
</g>
<g>
</g>
<g>
</g>
<g>
</g>
<g>
</g>
<g>
</g>
<g>
</g>
</svg>
