<?xml version="1.0" encoding="iso-8859-1"?>
<!-- Generator: Adobe Illustrator 19.0.0, SVG Export Plug-In . SVG Version: 6.00 Build 0)  -->
<svg version="1.1" id="Capa_1" xmlns="http://www.w3.org/2000/svg" xmlns:xlink="http://www.w3.org/1999/xlink" x="0px" y="0px"
	 viewBox="0 0 512.001 512.001" style="enable-background:new 0 0 512.001 512.001;" xml:space="preserve">
<path style="fill:#BD7155;" d="M495.322,67.59L463.17,97.966l-20.697,68.225c0,0,62.131-56.697,67.605-66.907
	C515.551,89.073,508.943,74.883,495.322,67.59z"/>
<path style="fill:#CE9276;" d="M460.75,72.872c-5.472,10.21-18.277,93.318-18.277,93.318l52.85-98.601
	C481.701,60.297,466.222,62.662,460.75,72.872z"/>
<path style="fill:#BD7155;" d="M184.16,448.644c-30.572,0-61.009-4.195-90.925-12.558c-38.355-10.721-60.752-50.488-50.025-88.822
	c10.728-38.334,50.518-60.72,88.871-49.997c49.749,13.906,101.94,7.617,146.954-17.708c45.016-25.325,77.471-66.655,91.384-116.378
	c10.727-38.333,50.52-60.717,88.871-49.997c38.355,10.721,60.752,50.488,50.025,88.822c-12.267,43.839-32.786,83.998-60.983,119.362
	c-27.211,34.126-60.369,62.322-98.552,83.803s-79.503,35.185-122.81,40.731C212.701,447.732,198.415,448.644,184.16,448.644z"/>
<path style="fill:#CE9276;" d="M459.238,167.514c12.79-34.085-24.213-65.531-55.68-47.198c-5.311,3.094-10.271,6.893-14.737,11.356
	c-8.47,8.465-14.944,19.16-18.4,31.511c-13.914,49.722-46.368,91.053-91.384,116.377c-45.015,25.325-97.205,31.614-146.954,17.708
	c-25.996-7.268-52.65,0.674-70.47,18.483c-0.144,0.144-0.287,0.288-0.431,0.434c-21.684,22.045-9.655,59.407,20.754,65.061
	c2.159,0.402,4.159,0.753,5.932,1.049c18.256,3.046,36.647,4.572,55.086,4.572c14.255,0,28.541-0.913,42.811-2.74
	c43.308-5.546,84.626-19.25,122.81-40.731c38.183-21.481,71.34-49.676,98.552-83.803c21.804-27.345,39.015-57.557,51.372-90.121
	C458.75,168.811,458.996,168.158,459.238,167.514z"/>
<path style="fill:#BD7155;" d="M20.986,356.087v45.806c4.444,0,18.845-4.11,34.915-9.179c8.118-2.56,12.64-9.07,13.58-16.035
	L20.986,356.087z"/>
<path style="fill:#CE9276;" d="M55.901,355.143c-16.07-5.068-30.471-9.178-34.915-9.179v30.715h48.495
	C70.666,367.89,66.144,358.374,55.901,355.143z"/>
<path style="fill:#BD7155;" d="M20.986,345.964C9.396,345.964,0,358.484,0,373.928c0,15.444,9.396,27.964,20.986,27.964
	c8.867-1.839,15.244-14.266,15.244-27.964C36.229,360.23,29.853,347.803,20.986,345.964z"/>
<g>
</g>
<g>
</g>
<g>
</g>
<g>
</g>
<g>
</g>
<g>
</g>
<g>
</g>
<g>
</g>
<g>
</g>
<g>
</g>
<g>
</g>
<g>
</g>
<g>
</g>
<g>
</g>
<g>
</g>
</svg>
