<?xml version="1.0" encoding="iso-8859-1"?>
<!-- Generator: Adobe Illustrator 19.0.0, SVG Export Plug-In . SVG Version: 6.00 Build 0)  -->
<svg version="1.1" id="Layer_1" xmlns="http://www.w3.org/2000/svg" xmlns:xlink="http://www.w3.org/1999/xlink" x="0px" y="0px"
	 viewBox="0 0 512 512" style="enable-background:new 0 0 512 512;" xml:space="preserve">
<path style="fill:#FFE1BF;" d="M294.288,378.435H181.315c-4.527,0-8.859-1.837-12-5.087c-3.147-3.256-4.837-7.647-4.685-12.169
	c0.516-15.472-1.864-32.62-5.473-58.576c-2.799-20.168-6.283-45.217-9.609-78.381c-1.799-7.424-8.51-12.744-16.207-12.744H16.696
	C7.473,211.478,0,204.005,0,194.783V16.696C0,7.473,7.473,0,16.696,0h144.027c82.853,0,150.038,67.408,150.038,150.261v211.478
	C310.761,370.962,303.511,378.435,294.288,378.435z"/>
<path style="fill:#FFCF99;" d="M256,34.17v344.264h38.288c9.223,0,16.473-7.473,16.473-16.696V150.261
	C310.761,103.545,289.545,61.752,256,34.17z"/>
<path style="fill:#54CCFF;" d="M411.142,512h-210.11c-17.908,0-33.451-12.136-37.793-29.511l-29.174-116.702
	c-1.25-4.989-0.13-10.272,3.038-14.326c3.164-4.048,8.017-6.418,13.158-6.418h311.652c5.141,0,9.994,2.37,13.157,6.419
	c3.169,4.055,4.289,9.337,3.038,14.326l-29.173,116.7C444.592,499.864,429.049,512,411.142,512z"/>
<path style="fill:#4BB8E6;" d="M461.913,345.043H256V512h155.142c17.908,0,33.451-12.136,37.793-29.511l29.174-116.702
	c1.25-4.989,0.13-10.272-3.038-14.326C471.907,347.413,467.054,345.043,461.913,345.043z"/>
<g>
	<path style="fill:#E7812E;" d="M389.571,229.478c2.277-2.038,22.255-20.653,22.255-45.826s-19.978-43.788-22.255-45.826
		c-6.826-6.125-17.282-5.549-23.456,1.256c-6.168,6.794-5.652,17.331,1.103,23.543c2.913,2.68,11.217,12.284,11.217,21.028
		s-8.304,18.347-11.136,20.956c-2.277,2.038-22.255,20.653-22.255,45.826s19.978,43.788,22.255,45.826
		c3.174,2.848,7.13,4.244,11.076,4.244c4.543,0,9.076-1.859,12.38-5.5c6.168-6.794,5.652-17.331-1.103-23.543
		c-2.913-2.68-11.217-12.284-11.217-21.028S386.739,232.087,389.571,229.478z"/>
	<path style="fill:#E7812E;" d="M512,183.652c0-25.174-19.978-43.788-22.255-45.826c-6.826-6.125-17.282-5.549-23.456,1.256
		c-6.168,6.794-5.652,17.331,1.103,23.543c2.913,2.68,11.217,12.284,11.217,21.028s-8.304,18.347-11.136,20.956
		c-2.277,2.038-22.255,20.653-22.255,45.826s19.978,43.788,22.255,45.826c3.174,2.848,7.13,4.244,11.076,4.244
		c4.543,0,9.076-1.859,12.38-5.5c6.168-6.794,5.652-17.331-1.103-23.543c-2.913-2.68-11.217-12.284-11.217-21.028
		s8.304-18.347,11.136-20.956C492.022,227.44,512,208.826,512,183.652"/>
</g>
<path style="fill:#5AF1FF;" d="M512,361.739c0,9.22-7.475,16.696-16.696,16.696H116.87c-9.22,0-16.696-7.475-16.696-16.696l0,0
	c0-9.22,7.475-16.696,16.696-16.696h378.435C504.525,345.043,512,352.519,512,361.739"/>
<path style="fill:#FFCF99;" d="M227.505,166.957c-9.223,0-16.696-7.473-16.696-16.696c0-27.619-22.468-50.087-50.087-50.087
	c-9.223,0-16.696-7.473-16.696-16.696s7.473-16.696,16.696-16.696c46.032,0,83.478,37.446,83.478,83.478
	C244.201,159.484,236.729,166.957,227.505,166.957z"/>
<path style="fill:#51DAE6;" d="M512,361.739c0-9.22-7.475-16.696-16.696-16.696H256v33.391h239.304
	C504.525,378.435,512,370.96,512,361.739"/>
<g>
</g>
<g>
</g>
<g>
</g>
<g>
</g>
<g>
</g>
<g>
</g>
<g>
</g>
<g>
</g>
<g>
</g>
<g>
</g>
<g>
</g>
<g>
</g>
<g>
</g>
<g>
</g>
<g>
</g>
</svg>
