<?xml version="1.0" encoding="iso-8859-1"?>
<!-- Generator: Adobe Illustrator 19.0.0, SVG Export Plug-In . SVG Version: 6.00 Build 0)  -->
<svg version="1.1" id="Layer_1" xmlns="http://www.w3.org/2000/svg" xmlns:xlink="http://www.w3.org/1999/xlink" x="0px" y="0px"
	 viewBox="0 0 511.999 511.999" style="enable-background:new 0 0 511.999 511.999;" xml:space="preserve">
<path style="fill:#7DCD55;" d="M273.46,123.574c-4.875,0-8.828-3.948-8.828-8.828V64.099c0-15.682,10.53-29.647,25.608-33.957
	L394.623,0.322c4.69-1.284,9.574,1.379,10.914,6.069s-1.375,9.569-6.06,10.915L295.094,47.125
	c-7.539,2.155-12.806,9.129-12.806,16.975v50.647C282.287,119.626,278.335,123.574,273.46,123.574z"/>
<path style="fill:#FFC855;" d="M317.21,511.999H123.775c-9.902,0-17.866-8.14-17.651-18.04l8.06-370.769
	c0.209-9.599,8.05-17.272,17.651-17.272H309.15c9.601,0,17.443,7.672,17.651,17.272l8.06,370.769
	C335.078,503.858,327.112,511.999,317.21,511.999z"/>
<path style="fill:#649B4B;" d="M220.479,242.888c-0.138,0-0.271,0-0.409-0.009c-4.871-0.224-8.638-4.346-8.418-9.216
	c0.862-19.035-12.522-26.872-13.091-27.191c-4.208-2.397-5.746-7.75-3.401-11.983c2.345-4.215,7.621-5.793,11.871-3.509
	c0.966,0.518,23.634,13.121,22.259,43.475C229.074,239.199,225.169,242.888,220.479,242.888z"/>
<path style="fill:#7DCD55;" d="M257.362,163.701c-24.051,0-43.617,20.381-43.617,45.435c0,4.018,3.255,7.27,7.27,7.27
	c24.051,0,43.617-20.381,43.617-45.435C264.632,166.952,261.376,163.701,257.362,163.701z"/>
<path style="fill:#A0EB64;" d="M257.362,163.701c-24.051,0-43.617,20.381-43.617,45.435c0,1.537,0.584,2.881,1.397,4.055
	l47.36-47.36C261.187,164.513,259.37,163.701,257.362,163.701z"/>
<path style="fill:#E15050;" d="M262.328,226.843c-6.312-2.052-12.862-2.09-19.266-0.42c-14.848,3.872-30.289,3.872-45.138,0
	c-6.403-1.67-12.955-1.632-19.266,0.42c-23.766,7.728-35.067,40.936-25.245,74.171c9.823,33.237,37.052,53.915,60.817,46.187
	c0.022-0.008,0.044-0.014,0.066-0.022c4.04-1.325,8.352-1.325,12.392,0c0.022,0.008,0.044,0.014,0.066,0.022
	c23.766,7.728,50.994-12.952,60.817-46.187S286.093,234.571,262.328,226.843z"/>
<path style="fill:#D24146;" d="M188.724,301.016c-9.198-31.119,0.128-62.208,20.86-72.386c-3.912-0.483-7.807-1.201-11.66-2.206
	c-6.403-1.67-12.955-1.632-19.266,0.42c-23.766,7.727-35.067,40.936-25.244,74.171s37.052,53.915,60.817,46.187
	c0.022-0.007,0.044-0.014,0.066-0.022c4.04-1.325,8.352-1.325,12.392,0c0.022,0.007,0.044,0.014,0.066,0.022
	c3.739,1.216,7.564,1.653,11.393,1.524C217.639,348.037,197.002,329.022,188.724,301.016z"/>
<path style="fill:#FF6E6E;" d="M262.179,302.338c-0.828,0-1.673-0.113-2.508-0.362c-4.672-1.379-7.345-6.293-5.961-10.966
	c4.952-16.759,0.022-28.949-2.686-30.759c-4.638-1.508-6.978-6.406-5.474-11.035c1.504-4.647,6.703-7.112,11.319-5.587
	c12.625,4.104,21.384,26.63,13.771,52.381C269.507,299.855,265.99,302.338,262.179,302.338z"/>
<path style="fill:#E15050;" d="M255.804,414.893h-70.623c-9.751,0-17.656-7.904-17.656-17.656l0,0
	c0-9.751,7.904-17.656,17.656-17.656h70.623c9.751,0,17.656,7.904,17.656,17.656l0,0
	C273.46,406.988,265.555,414.893,255.804,414.893z"/>
<path style="fill:#FFA046;" d="M246.976,450.204h-52.967c-4.875,0-8.828-3.953-8.828-8.828l0,0c0-4.875,3.953-8.828,8.828-8.828
	h52.967c4.875,0,8.828,3.953,8.828,8.828l0,0C255.804,446.252,251.851,450.204,246.976,450.204z"/>
<g>
</g>
<g>
</g>
<g>
</g>
<g>
</g>
<g>
</g>
<g>
</g>
<g>
</g>
<g>
</g>
<g>
</g>
<g>
</g>
<g>
</g>
<g>
</g>
<g>
</g>
<g>
</g>
<g>
</g>
</svg>
